<svg width="32" height="28" viewBox="0 0 32 28" fill="none" xmlns="http://www.w3.org/2000/svg">
<path fill-rule="evenodd" clip-rule="evenodd" d="M3.84022 19.4326H1.3511C1.18077 19.4326 1.0359 19.557 1.00934 19.7259L0.00261115 26.1387C-0.0173984 26.2653 0.0801408 26.3793 0.207896 26.3793H1.39623C1.56656 26.3793 1.71143 26.255 1.73799 26.0857L2.00952 24.3561C2.03571 24.1867 2.18093 24.0625 2.35091 24.0625H3.13888C4.77855 24.0625 5.7248 23.2653 5.97205 21.6856C6.08339 20.9945 5.97677 20.4515 5.65456 20.0711C5.30086 19.6536 4.67328 19.4326 3.84022 19.4326ZM4.1274 21.7748C3.99131 22.6722 3.30886 22.6722 2.649 22.6722H2.27338L2.53689 20.9962C2.55254 20.895 2.63988 20.8204 2.7418 20.8204H2.91396C3.36345 20.8204 3.78751 20.8204 4.00663 21.0778C4.13717 21.2314 4.17725 21.4596 4.1274 21.7748ZM11.2808 21.746H10.0888C9.98728 21.746 9.89952 21.8207 9.88386 21.922L9.83114 22.2569L9.74777 22.1356C9.48973 21.7592 8.91437 21.6335 8.34002 21.6335C7.02273 21.6335 5.89778 22.6358 5.67865 24.0419C5.56479 24.7431 5.72665 25.4138 6.12263 25.8815C6.48594 26.3115 7.00571 26.4907 7.62402 26.4907C8.68531 26.4907 9.27397 25.805 9.27397 25.805L9.22075 26.1379C9.2007 26.2651 9.29823 26.3792 9.42522 26.3792H10.499C10.6698 26.3792 10.8138 26.2548 10.8407 26.0856L11.485 21.9867C11.5053 21.8606 11.4082 21.746 11.2808 21.746ZM9.61926 24.0769C9.50422 24.7611 8.96372 25.2203 8.2745 25.2203C7.92838 25.2203 7.65165 25.1088 7.47412 24.8975C7.29794 24.6876 7.23091 24.3888 7.28699 24.0561C7.39445 23.3777 7.94404 22.9035 8.62282 22.9035C8.9612 22.9035 9.23641 23.0164 9.41764 23.2296C9.59921 23.445 9.6713 23.7456 9.61926 24.0769ZM16.4313 21.7459H17.6292C17.7969 21.7459 17.8948 21.9349 17.7994 22.0732L13.8155 27.8507C13.751 27.9443 13.6448 28 13.5312 28H12.3349C12.1664 28 12.0681 27.8094 12.1656 27.6708L13.4061 25.9116L12.0868 22.0215C12.0411 21.8863 12.1405 21.7459 12.2837 21.7459H13.4607C13.6136 21.7459 13.7485 21.8467 13.7926 21.9938L14.4928 24.3433L16.1449 21.8983C16.2096 21.8029 16.3171 21.7459 16.4313 21.7459Z" fill="#253B80"/>
<path fill-rule="evenodd" clip-rule="evenodd" d="M29.4177 26.1387L30.4392 19.6086C30.4549 19.5072 30.5423 19.4326 30.6438 19.4323H31.7939C31.9209 19.4323 32.0184 19.5466 31.9984 19.6732L30.991 26.0857C30.9647 26.2549 30.8199 26.3793 30.6492 26.3793H29.6221C29.4951 26.3793 29.3976 26.2653 29.4177 26.1387ZM21.5942 19.4326H19.1046C18.9347 19.4326 18.7898 19.557 18.7632 19.7259L17.7565 26.1387C17.7365 26.2653 17.834 26.3793 17.9612 26.3793H19.2385C19.3573 26.3793 19.4589 26.2923 19.4774 26.1739L19.763 24.3561C19.7893 24.1867 19.9345 24.0625 20.1045 24.0625H20.892C22.532 24.0625 23.4781 23.2653 23.7255 21.6856C23.8372 20.9945 23.7299 20.4515 23.4079 20.0711C23.0544 19.6536 22.4273 19.4326 21.5942 19.4326ZM21.8814 21.7748C21.7456 22.6722 21.0632 22.6722 20.4029 22.6722H20.0276L20.2916 20.9962C20.3072 20.895 20.3938 20.8204 20.4961 20.8204H20.6682C21.1174 20.8204 21.5418 20.8204 21.7608 21.0778C21.8915 21.2314 21.9313 21.4595 21.8814 21.7748ZM29.0342 21.746H27.843C27.7406 21.746 27.6537 21.8206 27.6384 21.922L27.5856 22.2569L27.5019 22.1356C27.2439 21.7592 26.6689 21.6335 26.0945 21.6335C24.7772 21.6335 23.6526 22.6358 23.4335 24.0419C23.32 24.7431 23.4812 25.4137 23.8771 25.8815C24.2411 26.3115 24.7602 26.4907 25.3785 26.4907C26.4398 26.4907 27.0283 25.805 27.0283 25.805L26.9753 26.1378C26.9552 26.2651 27.0527 26.3791 27.1806 26.3791H28.2538C28.4238 26.3791 28.5686 26.2548 28.5952 26.0855L29.2398 21.9867C29.2595 21.8606 29.162 21.746 29.0342 21.746ZM27.3728 24.0769C27.2584 24.761 26.7172 25.2203 26.0278 25.2203C25.6824 25.2203 25.4051 25.1088 25.2274 24.8974C25.0513 24.6876 24.9851 24.3888 25.0405 24.0561C25.1485 23.3777 25.6974 22.9035 26.3761 22.9035C26.7147 22.9035 26.9897 23.0164 27.1711 23.2296C27.3534 23.445 27.4255 23.7455 27.3728 24.0769Z" fill="#179BD7"/>
<path d="M13.0544 17.1381L13.3604 15.1853L12.6788 15.1694H9.42383L11.6859 0.759108C11.6928 0.715601 11.7157 0.675039 11.749 0.646237C11.7824 0.617436 11.8251 0.601562 11.8696 0.601562H17.3579C19.18 0.601562 20.4374 0.982497 21.0939 1.73437C21.4016 2.08709 21.5977 2.45567 21.6925 2.8613C21.7919 3.28692 21.7937 3.79542 21.6965 4.41562L21.6895 4.46088V4.85827L21.9974 5.03346C22.2566 5.1716 22.4624 5.32973 22.6204 5.5108C22.8838 5.81237 23.0541 6.19566 23.126 6.65007C23.2003 7.11743 23.1757 7.67354 23.0541 8.30315C22.9136 9.0274 22.6866 9.65817 22.38 10.1743C22.0979 10.6499 21.7387 11.0443 21.3122 11.35C20.9049 11.6404 20.421 11.8609 19.874 12.0021C19.3437 12.1407 18.7394 12.2107 18.0765 12.2107H17.6493C17.344 12.2107 17.0472 12.3212 16.8144 12.5194C16.581 12.7216 16.4263 12.9978 16.379 13.3L16.3468 13.4758L15.8062 16.9176L15.7816 17.044C15.7752 17.0841 15.7641 17.1041 15.7477 17.1176C15.7331 17.1298 15.712 17.1381 15.6915 17.1381H13.0544Z" fill="#253B80"/>
<path d="M22.2906 4.50696C22.2743 4.61218 22.2556 4.71975 22.2345 4.83027C21.5106 8.56379 19.0345 9.85357 15.8719 9.85357H14.2617C13.875 9.85357 13.5491 10.1357 13.4888 10.519L12.6643 15.7722L12.4309 17.2612C12.3916 17.5128 12.5848 17.7398 12.8375 17.7398H15.6935C16.0317 17.7398 16.3189 17.4929 16.3721 17.1578L16.4003 17.0119L16.9381 13.5835L16.9726 13.3955C17.0251 13.0593 17.313 12.8124 17.6512 12.8124H18.0783C20.8453 12.8124 23.0115 11.6836 23.6447 8.41742C23.9091 7.05298 23.7722 5.91371 23.0723 5.11245C22.8606 4.87084 22.5979 4.67038 22.2906 4.50696Z" fill="#179BD7"/>
<path d="M21.5291 4.20363C21.4186 4.1713 21.3045 4.1419 21.1874 4.11545C21.0698 4.0896 20.9492 4.06667 20.8253 4.04668C20.3911 3.97613 19.9154 3.94263 19.4057 3.94263H15.104C14.9981 3.94263 14.8975 3.96672 14.8074 4.01023C14.609 4.10604 14.4616 4.29476 14.4259 4.52578L13.5107 10.3492L13.4844 10.519C13.5447 10.1358 13.8706 9.85357 14.2573 9.85357H15.8675C19.0301 9.85357 21.5064 8.56322 22.2301 4.8303C22.2517 4.71978 22.2699 4.6122 22.2862 4.50698C22.1031 4.40939 21.9047 4.32591 21.6912 4.25477C21.6386 4.23714 21.5842 4.2201 21.5291 4.20363Z" fill="#222D65"/>
<path d="M14.428 4.52595C14.4637 4.29491 14.6112 4.10622 14.8095 4.01098C14.9002 3.96747 15.0003 3.94337 15.1061 3.94337H19.4079C19.9176 3.94337 20.3933 3.97688 20.8273 4.04743C20.9514 4.06741 21.072 4.09034 21.1896 4.1162C21.3067 4.14266 21.4207 4.17206 21.5314 4.20438C21.5863 4.22085 21.6407 4.23789 21.6939 4.25494C21.9075 4.32607 22.1059 4.41014 22.289 4.50713C22.5044 3.12742 22.2873 2.18802 21.5448 1.33738C20.7263 0.40092 19.2488 0 17.3583 0H11.8698C11.4836 0 11.1543 0.28216 11.0945 0.66604L8.8086 15.2245C8.76346 15.5125 8.98461 15.7724 9.27364 15.7724H12.6621L13.5129 10.3493L14.428 4.52595Z" fill="#253B80"/>
</svg>
