<svg xmlns="http://www.w3.org/2000/svg" width="1896" height="401" fill-rule="evenodd" xmlns:v="https://vecta.io/nano"><g fill="#072654"><path d="M451.921 151.494c-2.99 11.156-8.785 19.344-17.386 24.572-8.611 5.227-20.688 7.846-36.266 7.846h-49.492l17.374-64.831h49.492c15.566 0 26.253 2.614 32.059 7.841 5.795 5.233 7.209 13.422 4.219 24.572m51.253-1.397c6.294-23.459 3.685-41.47-7.823-54.017s-31.677-18.817-60.48-18.817h-110.48l-66.494 248.14h53.675l26.809-100.025h35.2c7.893 0 14.106 1.28 18.65 3.836 4.554 2.561 7.22 7.093 8.043 13.59l9.574 82.599h57.511l-9.33-77.018c-1.901-17.195-9.77-27.302-23.598-30.321 17.629-5.106 32.395-13.596 44.287-25.447 11.881-11.845 20.04-26.015 24.456-42.52m130.451 86.436c-4.485 16.725-11.394 29.509-20.724 38.335-9.341 8.832-20.515 13.243-33.519 13.243-13.26 0-22.254-4.353-26.995-13.069-4.764-8.71-4.926-21.309-.498-37.814 4.416-16.493 11.463-29.387 21.164-38.689 9.689-9.284 21.037-13.937 34.052-13.937 13.005 0 21.814 4.48 26.38 13.422s4.625 21.778.14 38.509h0zm23.528-87.827l-6.722 25.094c-2.91-9.064-8.531-16.262-16.853-21.605-8.333-5.343-18.66-8.021-30.97-8.021-15.102 0-29.625 3.895-43.556 11.678s-26.114 18.765-36.533 32.934c-10.42 14.175-18.058 30.321-22.915 48.442-4.856 18.128-5.83 34.1-2.909 47.921 2.921 13.828 9.249 24.456 18.996 31.891 9.737 7.441 22.278 11.15 37.612 11.15 12.309 0 24.039-2.555 35.166-7.667 11.126-5.105 20.572-12.198 28.349-21.257l-7.011 26.137h51.924l47.348-176.697h-51.926zm238.637 0H744.882l-10.548 39.385h87.821L706.042 288.458l-9.91 36.945H851.92l10.558-39.379h-94.09l117.875-101.77zm132.861 87.479c-4.671 17.42-11.591 30.442-20.747 39.037s-20.237 12.888-33.241 12.888c-27.192 0-36.14-17.299-26.867-51.925 4.613-17.195 11.567-30.147 20.863-38.857 9.306-8.716 20.573-13.074 33.821-13.074 13.004 0 21.778 4.358 26.299 13.074 4.519 8.71 4.485 21.662-.128 38.857m30.379-80.861c-11.95-7.43-27.215-11.15-45.806-11.15-18.823 0-36.255 3.72-52.307 11.15-16.053 7.441-29.719 18.128-40.996 32.065-11.29 13.943-19.426 30.205-24.41 48.796s-5.563 34.847-1.738 48.79c3.813 13.943 11.741 24.63 23.818 32.065 12.066 7.441 27.504 11.15 46.328 11.15 18.59 0 35.848-3.709 51.786-11.15 15.913-7.435 29.532-18.122 40.821-32.065 11.277-13.943 19.414-30.199 24.398-48.79s5.564-34.853 1.75-48.796c-3.825-13.937-11.707-24.624-23.644-32.065m543.107 81.209c-4.485 16.725-11.394 29.509-20.724 38.335-9.331 8.832-20.527 13.243-33.531 13.243-13.236 0-22.242-4.353-26.983-13.069-4.764-8.71-4.926-21.309-.498-37.814 4.416-16.493 11.463-29.387 21.164-38.689 9.689-9.284 21.037-13.937 34.052-13.937 13.005 0 21.814 4.48 26.38 13.422s4.625 21.778.14 38.509h0zm23.528-87.827l-6.722 25.094c-2.91-9.064-8.531-16.262-16.853-21.605-8.333-5.343-18.66-8.021-30.97-8.021-15.102 0-29.625 3.895-43.556 11.678s-26.114 18.765-36.533 32.934c-10.42 14.175-18.059 30.321-22.915 48.442-4.856 18.128-5.819 34.1-2.909 47.921 2.92 13.828 9.238 24.456 18.996 31.891 9.737 7.441 22.278 11.15 37.612 11.15a83.28 83.28 0 0 0 35.165-7.667c11.127-5.105 20.573-12.198 28.35-21.257l-7.011 26.137h51.924l47.348-176.697h-51.926z"/><path d="M1244.165 196.106l13.236-48.095c-4.497-2.324-10.455-3.488-17.884-3.488-11.857 0-23.274 2.961-34.273 8.889-9.446 5.086-17.49 12.225-24.282 21.17l6.885-25.9-15.034.025h-36.875l-47.711 176.696h52.643l24.746-92.352c3.605-13.474 10.072-23.987 19.426-31.538 9.33-7.551 20.978-11.33 34.922-11.33 8.599 0 16.655 1.976 24.201 5.923m146.532 41.12c-4.428 16.505-11.289 29.104-20.585 37.814-9.318 8.716-20.469 13.068-33.473 13.068-13.016 0-21.882-4.41-26.6-13.242-4.729-8.826-4.845-21.605-.36-38.336s11.463-29.567 20.945-38.509 20.735-13.422 33.751-13.422c12.772 0 21.454 4.654 26.055 13.944 4.59 9.295 4.683 22.195.267 38.683m36.788-81.377c-9.77-7.783-22.207-11.671-37.298-11.671-13.248 0-25.858 3.019-37.797 9.058-11.972 6.05-21.673 14.285-29.115 24.745l.168-1.159 8.844-28.143h-10.177v.025h-41.21l-13.085 48.862-.43 1.672-53.976 201.443h52.633l27.179-101.411c2.665 9.052 8.206 16.145 16.598 21.251s18.741 7.667 31.062 7.667c15.335 0 29.915-3.709 43.765-11.15 13.84-7.43 25.87-18.064 36.071-31.891 10.21-13.816 17.745-29.794 22.601-47.921s5.864-34.267 3.048-48.442-9.122-25.146-18.881-32.935m468.053-7.094l.034-.049h-31.88l-2.85.049h-16.546l-8.461 11.788-2.086 2.819-.922 1.365-67.242 93.648-13.943-109.669h-55.078l27.892 166.648-61.597 85.329h1.756 31.45 21.669l14.928-21.146 1.287-1.812 17.42-24.697.499-.707 77.945-110.494 65.672-92.999.087-.073h-.034z"/></g><path fill="#3395ff" d="M122.634 105.69l-15.756 57.983 90.156-58.309-58.959 219.984 59.873.055L285.046.482z"/><path d="M25.595 232.925L.808 325.403h122.726l50.212-188.137-148.151 95.659" fill="#072654"/></svg>