<svg width="32" height="13" viewBox="0 0 32 13" fill="none" xmlns="http://www.w3.org/2000/svg">
<path fill-rule="evenodd" clip-rule="evenodd" d="M17.3249 1.76163L15.0938 2.23024V0.459932L17.3249 0V1.76163ZM8.25979 1.00671L6.09092 1.45796L6.08203 8.40901C6.08203 9.69335 7.06869 10.6392 8.38423 10.6392C9.11311 10.6392 9.64644 10.5091 9.93977 10.3529V8.59125C9.65533 8.70406 8.2509 9.10325 8.2509 7.81891V4.73823H9.93977V2.88983H8.2509L8.25979 1.00671ZM3.00441 4.62545C2.53331 4.62545 2.24886 4.75562 2.24886 5.09406C2.24886 5.46358 2.73839 5.62613 3.34571 5.8278C4.33577 6.15655 5.63887 6.58925 5.64438 8.1921C5.64438 9.74545 4.37329 10.6393 2.52442 10.6393C1.75998 10.6393 0.924434 10.4918 0.0977767 10.1446V8.07928C0.844435 8.47847 1.78665 8.77352 2.52442 8.77352C3.02219 8.77352 3.37774 8.64335 3.37774 8.24416C3.37774 7.83485 2.84708 7.64776 2.20643 7.42189C1.23077 7.0779 0 6.64398 0 5.1982C0 3.66219 1.19999 2.74233 3.00441 2.74233C3.74218 2.74233 4.47106 2.85514 5.20883 3.14152V5.18084C4.53328 4.82504 3.67996 4.62545 3.00441 4.62545ZM28.79 2.74245C30.8967 2.74245 31.9989 4.4954 31.9989 6.71696C31.9989 6.8367 31.993 7.03677 31.988 7.20665L31.988 7.20698L31.988 7.20723L31.988 7.20743L31.988 7.20762C31.9843 7.33281 31.9811 7.44147 31.9811 7.4893H27.6345C27.7323 8.5133 28.4967 8.80835 29.3589 8.80835C30.2389 8.80835 30.9322 8.62611 31.5367 8.33106V10.0667C30.9322 10.3964 30.1322 10.6307 29.0745 10.6307C26.9056 10.6307 25.3945 9.31167 25.3945 6.6996C25.3945 4.4954 26.6745 2.74245 28.79 2.74245ZM28.7807 4.504C28.2207 4.504 27.6074 4.91186 27.6074 5.89247H29.9007C29.9007 4.91186 29.323 4.504 28.7807 4.504ZM12.7028 3.53177L12.5606 2.8896H10.6406V10.4828H12.8628V5.33679C13.3873 4.66859 14.2761 4.79008 14.5517 4.88554V2.8896C14.2672 2.78547 13.2273 2.59455 12.7028 3.53177ZM15.0938 2.88986H17.3249V10.4831H15.0938V2.88986ZM21.9676 2.74257C21.0965 2.74257 20.5365 3.14176 20.2254 3.41945L20.1098 2.88142H18.1543V12.9999L20.3765 12.54L20.3854 10.0841C20.7054 10.3098 21.1765 10.6308 21.9587 10.6308C23.5498 10.6308 24.9987 9.38122 24.9987 6.6303C24.9898 4.11369 23.5231 2.74257 21.9676 2.74257ZM21.4347 8.72152C20.9103 8.72152 20.5992 8.53929 20.3858 8.31366L20.377 5.09414C20.6081 4.84248 20.9281 4.66892 21.4347 4.66892C22.2436 4.66892 22.8036 5.55407 22.8036 6.69088C22.8036 7.85373 22.2525 8.72152 21.4347 8.72152Z" fill="#6461FC"/>
</svg>
