<svg width="35" height="28" viewBox="0 0 35 28" fill="none" xmlns="http://www.w3.org/2000/svg">
<path d="M24.0666 6.30023H23.6V2.56696C23.6 2.438 23.4955 2.33365 23.3666 2.33365H21.9533L21.4893 0.863647C21.4797 0.833344 21.464 0.805313 21.4433 0.78126C21.4225 0.757207 21.397 0.737636 21.3684 0.723737C21.3398 0.709881 21.3086 0.702028 21.2768 0.70066C21.245 0.699293 21.2133 0.70444 21.1835 0.715786L19.2833 1.43994L18.4298 0.107901C18.4132 0.0819001 18.3916 0.0594611 18.3662 0.041889C18.3409 0.024317 18.3123 0.0119625 18.2821 0.00554405C18.252 -0.00121878 18.2208 -0.00180087 18.1905 0.00383301C18.1601 0.00946689 18.1313 0.0211995 18.1056 0.0383205L14.6023 2.33365H12.6333C11.7317 2.33465 11.0011 3.06536 11 3.96692V12.3667C11.0011 13.2682 11.7317 13.999 12.6333 14H23.3666C23.4955 14 23.6 13.8955 23.6 13.7666V10.9667H24.0666C24.5821 10.9667 25 10.5488 25 10.0335V7.23355C25 6.71796 24.5821 6.30023 24.0666 6.30023ZM24.0666 6.76686C24.3244 6.76686 24.5333 6.97566 24.5333 7.23355C24.5333 7.49124 24.3244 7.70011 24.0666 7.70011H23.6V6.76686H24.0666ZM23.1333 2.80034V5.13355H22.8377L22.1009 2.80034H23.1333ZM22.3485 5.13355H21.6683L21.0214 3.19316C21.0059 3.14667 20.9762 3.10624 20.9365 3.07759C20.8968 3.04894 20.849 3.03353 20.8 3.03354C20.6827 3.03392 20.5664 3.011 20.458 2.96612C20.3496 2.92124 20.2511 2.85529 20.1684 2.7721L20.0316 2.63529C20 2.60373 19.9601 2.58187 19.9165 2.57232C19.8729 2.56276 19.8275 2.56589 19.7857 2.58135L12.8821 5.13355H12.6333C12.4793 5.13354 12.3268 5.10294 12.1847 5.04353C12.0426 4.98412 11.9137 4.89708 11.8055 4.78745L21.1188 1.24097L22.3485 5.13355ZM21.1765 5.13355H14.2275L19.8075 3.07086L19.8384 3.10197C20.051 3.31579 20.3291 3.4522 20.6283 3.48941L21.1765 5.13355ZM18.1634 0.558193L18.8369 1.61024L13.3948 3.6827L18.1634 0.558193ZM12.6333 2.80032H13.8899L11.5347 4.34341C11.4912 4.22258 11.4682 4.09533 11.4667 3.96692C11.4675 3.32295 11.9894 2.80098 12.6333 2.80035V2.80032ZM23.1333 13.5332H12.6333C11.9894 13.5325 11.4675 13.0106 11.4667 12.3667V5.1102C11.4689 5.11225 11.4713 5.11419 11.4734 5.11652C11.4917 5.13471 11.511 5.15144 11.53 5.16875C11.5488 5.18601 11.5691 5.20578 11.5899 5.2231C11.6107 5.2404 11.6308 5.25432 11.6512 5.26976C11.6718 5.28521 11.6938 5.30286 11.7161 5.31842C11.7385 5.33369 11.7602 5.34557 11.7822 5.35919C11.8042 5.37276 11.8276 5.38809 11.8521 5.40119C11.8767 5.41417 11.9 5.42446 11.924 5.4364C11.9481 5.44822 11.9708 5.45974 11.9954 5.47091C12.0202 5.48208 12.0485 5.49073 12.075 5.50026C12.1016 5.50985 12.1217 5.51897 12.1462 5.52635C12.1755 5.53577 12.2058 5.54238 12.2359 5.54976C12.2593 5.5553 12.2806 5.56244 12.3034 5.56707C12.3377 5.57425 12.3734 5.57842 12.4082 5.58339C12.4278 5.58601 12.4468 5.59011 12.4666 5.59222C12.5219 5.59772 12.5776 5.60034 12.6333 5.60029H12.9368L12.9401 5.60917L12.9651 5.60029H23.1333V7.70011H20.5666C19.6647 7.70011 18.9333 8.43135 18.9333 9.33343C18.9333 10.2354 19.6647 10.9667 20.5666 10.9667H23.1333V13.5332ZM24.5333 10.0335C24.5333 10.2912 24.3244 10.5 24.0666 10.5H20.5666C19.9224 10.5 19.4 9.97773 19.4 9.33341C19.4 8.68904 19.9224 8.16685 20.5666 8.16685H24.0666C24.123 8.16625 24.1789 8.16053 24.2342 8.14978C24.2475 8.14752 24.2606 8.14482 24.2737 8.14169C24.3264 8.13023 24.3781 8.1142 24.4281 8.09378L24.436 8.08999C24.4694 8.07575 24.5019 8.05956 24.5333 8.04151L24.5333 10.0335Z" fill="#6C2EB9"/>
<path d="M16.0347 6.30019H16.9681V6.76682H16.0347V6.30019ZM14.1682 6.30019H15.1014V6.76682H14.1682V6.30019ZM21.6347 6.30019H22.4345V6.76682H21.6347V6.30019ZM19.7681 6.30019H20.7014V6.76682H19.7681V6.30019ZM12.3592 6.26749L12.25 6.72013C12.3759 6.75063 12.505 6.7663 12.6345 6.76682H13.2347V6.30019H12.6345C12.5418 6.29996 12.4494 6.28899 12.3592 6.26749ZM17.9014 6.30019H18.8347V6.76682H17.9014V6.30019ZM12.3592 12.3339L12.25 12.7865C12.3759 12.8171 12.505 12.8328 12.6345 12.8333H13.2347V12.3666H12.6345C12.5418 12.3664 12.4494 12.3555 12.3592 12.3339ZM21.6347 12.3666H22.4345V12.8333H21.6347V12.3666ZM16.0347 12.3666H16.9681V12.8333H16.0347V12.3666ZM19.7681 12.3666H20.7014V12.8333H19.7681V12.3666ZM14.1682 12.3666H15.1014V12.8333H14.1682V12.3666ZM17.9014 12.3666H18.8347V12.8333H17.9014V12.3666ZM20.5679 8.63344C20.1813 8.63344 19.8678 8.94677 19.8678 9.33338C19.8678 9.71987 20.1813 10.0334 20.5679 10.0334C20.9544 10.0334 21.2678 9.71987 21.2678 9.33338C21.2678 8.94677 20.9544 8.63344 20.5679 8.63344ZM20.5679 9.56676C20.4391 9.56676 20.3345 9.46224 20.3345 9.33338C20.3345 9.20446 20.439 9.10007 20.5679 9.10007C20.6967 9.10007 20.8012 9.20446 20.8012 9.33338C20.8012 9.46223 20.6967 9.56676 20.5679 9.56676Z" fill="#6C2EB9"/>
<path d="M13.1388 18.264C13.0081 18.5067 12.6814 19.356 12.1588 20.812C11.6361 22.268 10.9174 24.3307 10.0028 27H8.42078C8.29012 26.5987 8.09412 26.0107 7.83278 25.236C7.57145 24.452 7.24478 23.4673 6.85278 22.282C6.60078 23.0007 6.33945 23.752 6.06878 24.536C5.79811 25.3107 5.51811 26.132 5.22878 27H3.64678C3.40411 26.2813 3.17545 25.6093 2.96078 24.984C2.75545 24.3493 2.55945 23.752 2.37278 23.192C1.92478 21.848 1.55145 20.77 1.25278 19.958C0.963448 19.1367 0.753448 18.572 0.622781 18.264H2.65278C2.69011 18.432 2.86278 19.0247 3.17078 20.042C3.47878 21.0593 3.92678 22.5153 4.51478 24.41L6.33478 18.264H7.27278C7.45945 18.852 7.71611 19.6547 8.04278 20.672C8.37878 21.6893 8.79412 22.9353 9.28878 24.41L10.9688 18.264H13.1388ZM19.0838 26.804C18.8504 27.0653 18.5751 27.196 18.2578 27.196C17.6791 27.196 17.3338 26.9673 17.2218 26.51C16.6711 26.9487 16.0644 27.168 15.4017 27.168C14.4218 27.168 13.9318 26.664 13.9318 25.656C13.9318 24.9187 14.2538 24.396 14.8978 24.088C15.2898 23.9013 16.0504 23.7333 17.1798 23.584V23.22C17.1798 22.8373 16.9231 22.646 16.4098 22.646C16.2138 22.646 16.0084 22.6693 15.7938 22.716C15.5791 22.7627 15.3738 22.8327 15.1778 22.926C14.9818 23.01 14.7951 23.1173 14.6178 23.248C14.4498 23.3693 14.3098 23.5047 14.1978 23.654V22.352C14.6551 21.82 15.3131 21.526 16.1718 21.47C16.8251 21.4327 17.3524 21.526 17.7538 21.75C18.2204 22.0207 18.4538 22.4453 18.4538 23.024V25.908C18.4538 26.1227 18.5331 26.23 18.6918 26.23C18.7944 26.23 18.9251 26.1367 19.0838 25.95V26.804ZM17.1798 25.558L17.1658 24.592C16.9044 24.6293 16.6758 24.6667 16.4798 24.704C16.2931 24.7413 16.1391 24.7787 16.0178 24.816C15.4951 24.9653 15.2244 25.1893 15.2058 25.488C15.1871 25.8987 15.3924 26.104 15.8218 26.104C16.0458 26.104 16.2931 26.048 16.5638 25.936C16.8344 25.824 17.0398 25.698 17.1798 25.558ZM21.4044 18.25C21.3857 18.4927 21.3717 18.936 21.3624 19.58C21.353 20.224 21.3437 21.0687 21.3344 22.114C21.3344 22.394 21.3344 22.7767 21.3344 23.262C21.3437 23.738 21.353 24.326 21.3624 25.026C21.3717 25.7353 21.3764 26.2533 21.3764 26.58C21.3857 26.9067 21.3904 27.0467 21.3904 27H19.9484C19.967 26.5147 19.981 25.8753 19.9904 25.082C19.9997 24.2887 20.0044 23.3413 20.0044 22.24C20.0137 20.224 19.9857 18.894 19.9204 18.25H21.4044ZM24.1251 18.25C24.1064 18.4927 24.0924 18.936 24.0831 19.58C24.0737 20.224 24.0644 21.0687 24.0551 22.114C24.0551 22.394 24.0551 22.7767 24.0551 23.262C24.0644 23.738 24.0737 24.326 24.0831 25.026C24.0924 25.7353 24.0971 26.2533 24.0971 26.58C24.1064 26.9067 24.1111 27.0467 24.1111 27H22.6691C22.6877 26.5147 22.7017 25.8753 22.7111 25.082C22.7204 24.2887 22.7251 23.3413 22.7251 22.24C22.7344 20.224 22.7064 18.894 22.6411 18.25H24.1251ZM30.5278 24.69H26.5518C26.5891 25.502 27.0184 25.908 27.8398 25.908C27.9424 25.908 28.0591 25.894 28.1898 25.866C28.6471 25.7913 28.9924 25.6373 29.2258 25.404L30.0658 26.496C29.3471 26.8973 28.6891 27.112 28.0918 27.14C27.1678 27.1867 26.4398 26.9627 25.9078 26.468C25.3758 25.964 25.1098 25.2313 25.1098 24.27C25.1098 23.5047 25.3804 22.8513 25.9218 22.31C26.4538 21.778 27.1024 21.5027 27.8678 21.484C28.3158 21.484 28.7078 21.5587 29.0438 21.708C29.3891 21.8573 29.6738 22.072 29.8978 22.352C30.1311 22.632 30.2991 22.9727 30.4018 23.374C30.5138 23.766 30.5558 24.2047 30.5278 24.69ZM29.0858 23.654C28.8524 23.0567 28.4604 22.758 27.9098 22.758C27.2658 22.7767 26.8878 23.0753 26.7758 23.654H29.0858ZM34.2458 21.554V22.716H33.3078C33.2891 22.8187 33.2751 23.2387 33.2658 23.976C33.2564 24.4613 33.2471 24.7833 33.2378 24.942C33.2378 25.0913 33.2378 25.0867 33.2378 24.928C33.2378 25.4413 33.2938 25.698 33.4058 25.698C33.4618 25.698 33.5411 25.6607 33.6438 25.586C33.7558 25.502 33.8258 25.4553 33.8538 25.446C33.8818 25.4833 33.9611 25.866 34.0918 26.594C33.4291 26.986 32.8178 27.1633 32.2578 27.126C32.0431 27.1073 31.9358 26.7013 31.9358 25.908C31.9358 25.8427 31.9498 25.3947 31.9778 24.564C31.9871 24.4147 31.9918 24.1907 31.9918 23.892C31.9918 23.5933 31.9964 23.206 32.0058 22.73H31.2078C31.2171 22.7207 31.2218 22.5247 31.2218 22.142V21.568H32.0198C32.0291 21.3253 32.0338 21.0827 32.0338 20.84C32.0338 20.5973 32.0338 20.3547 32.0338 20.112L33.3218 19.748V21.568C33.9284 21.568 34.2364 21.5633 34.2458 21.554Z" fill="#6C2EB9"/>
</svg>
