<svg width="17" height="17" viewBox="0 0 17 17" fill="none" xmlns="http://www.w3.org/2000/svg">
<path d="M1.43106 0.0531301C0.933014 0.185943 0.418366 0.600983 0.205866 1.03926C-0.0165948 1.49747 -0.00331358 1.04922 0.00664736 7.52384L0.0166083 13.3975L0.112897 13.6299C0.308796 14.1014 0.600983 14.4334 1.02266 14.6525C1.45762 14.8817 1.36465 14.875 4.17032 14.875H6.69707L6.80664 14.7986C7.12207 14.5895 7.13203 14.1246 6.82989 13.8988C6.73692 13.8291 6.71035 13.8291 4.25664 13.8125L1.77637 13.7959L1.58712 13.7029C1.37462 13.6 1.25176 13.4705 1.14883 13.2481L1.07911 13.0986V7.43751V1.77637L1.17208 1.58711C1.27501 1.37461 1.4045 1.25176 1.62696 1.14883C1.77637 1.07911 1.78301 1.07911 6.02637 1.07911C10.2664 1.07911 10.2764 1.07911 10.4258 1.14883C10.6217 1.23848 10.7811 1.40118 10.8773 1.61036L10.957 1.77637V4.06739C10.957 6.22891 10.9604 6.36505 11.0201 6.49454C11.1131 6.7004 11.2625 6.79005 11.5115 6.79005C11.734 6.79005 11.8369 6.73692 11.9664 6.56094C12.0361 6.4713 12.0361 6.44141 12.0361 4.02423C12.0361 1.59044 12.0361 1.57715 11.9631 1.34473C11.8203 0.886528 11.4451 0.441607 11.0268 0.219146C10.5818 -0.0132761 10.8807 5.72205e-06 6.00645 0.00332546C2.28106 0.00332546 1.58379 0.0132866 1.43106 0.0531301Z" fill="white"/>
<path d="M2.39727 2.87871C2.22129 2.96504 2.125 3.13437 2.125 3.35684C2.125 3.5627 2.19805 3.70547 2.36738 3.83164C2.46035 3.90137 2.48691 3.90137 4.25 3.90137C6.01309 3.90137 6.03965 3.90137 6.13262 3.83164C6.29863 3.70879 6.375 3.5627 6.375 3.36016C6.375 3.13437 6.28535 2.97832 6.10605 2.88867C5.9832 2.82559 5.90684 2.82227 4.24336 2.82227C2.70273 2.82227 2.49355 2.82891 2.39727 2.87871Z" fill="white"/>
<path d="M2.45703 5.68105C2.24785 5.76406 2.125 5.96328 2.125 6.2123C2.125 6.42812 2.21797 6.58418 2.39395 6.67383C2.5168 6.74023 2.60645 6.74023 6.03633 6.74023H9.55254L9.66543 6.66387C9.72519 6.62402 9.81152 6.5377 9.85469 6.47461C9.92109 6.37832 9.93105 6.32852 9.92109 6.16582C9.90449 5.93672 9.83144 5.82383 9.6289 5.71758L9.48281 5.64453L6.00976 5.64785C3.78848 5.64785 2.51016 5.66113 2.45703 5.68105Z" fill="white"/>
<path d="M11.8602 7.80274C9.83147 8.0584 8.23108 9.5625 7.84592 11.5713C7.7596 12.0195 7.76956 12.8596 7.86253 13.3045C8.06839 14.2707 8.49671 15.0443 9.20725 15.7283C9.87132 16.3725 10.7313 16.8041 11.6278 16.9502C12.0295 17.0133 12.7899 17.0133 13.1684 16.9502C15.1008 16.6182 16.6182 15.1008 16.9502 13.1684C17.0133 12.7898 17.0133 12.0295 16.9502 11.6277C16.8041 10.7313 16.3725 9.87129 15.7283 9.20723C15.041 8.49668 14.2541 8.06172 13.3078 7.86914C12.9194 7.78946 12.2221 7.75957 11.8602 7.80274ZM13.0987 8.94492C14.4865 9.23711 15.5623 10.3262 15.8512 11.7273C15.9209 12.0594 15.9209 12.6936 15.8512 13.0488C15.4295 15.2867 12.9891 16.5451 10.9371 15.5889C10.552 15.4096 10.2698 15.2203 9.98089 14.9447C8.52991 13.5635 8.50667 11.2924 9.92776 9.89453C10.469 9.36328 11.153 9.02461 11.9365 8.89844C12.1955 8.8586 12.8065 8.88184 13.0987 8.94492Z" fill="white"/>
<path d="M12.1523 9.96758C11.8734 10.1104 11.8701 10.1203 11.8602 11.04L11.8502 11.8502L11.04 11.8602C10.2863 11.8701 10.2266 11.8734 10.1369 11.9398C10.0207 12.0229 9.89453 12.2652 9.89453 12.4047C9.89453 12.574 10.0273 12.7865 10.1934 12.8729C10.3295 12.9459 10.366 12.9492 11.0965 12.9492H11.8535V13.7129C11.8535 14.4102 11.8602 14.4898 11.9199 14.6061C12.0992 14.9613 12.6105 14.9746 12.8629 14.6326C12.9293 14.543 12.9326 14.4898 12.9426 13.7461L12.9525 12.9525L13.7461 12.9426C14.626 12.9326 14.6326 12.9293 14.802 12.6836C14.9016 12.5342 14.9049 12.2553 14.8053 12.0959C14.6658 11.8734 14.5762 11.8535 13.7129 11.8535H12.9492V11.0965C12.9492 10.366 12.9459 10.3295 12.8729 10.1934C12.7865 10.0273 12.574 9.89454 12.4047 9.89454C12.3449 9.89454 12.232 9.92774 12.1523 9.96758Z" fill="white"/>
<path d="M2.36406 8.56641C2.20469 8.66602 2.125 8.81543 2.125 9.03125C2.125 9.24707 2.20469 9.39649 2.36406 9.49609C2.47031 9.55918 2.53672 9.5625 4.60195 9.5625H6.73027L6.83984 9.48613C7.0291 9.35996 7.08887 9.25039 7.08887 9.03125C7.08887 8.81211 7.0291 8.70254 6.83984 8.57305L6.73027 8.5H4.60195C2.53672 8.5 2.47031 8.50332 2.36406 8.56641Z" fill="white"/>
</svg>
