<svg width="17" height="17" viewBox="0 0 17 17" fill="none" xmlns="http://www.w3.org/2000/svg">
<path d="M1.431 0.0532217C0.932953 0.186034 0.418305 0.601074 0.205805 1.03936C-0.0166559 1.49756 -0.00337461 1.04932 0.00658632 7.52393L0.0165473 13.3976L0.112836 13.63C0.308735 14.1015 0.600922 14.4335 1.0226 14.6526C1.45756 14.8817 1.36459 14.8751 4.17026 14.8751H6.69701L6.80658 14.7987C7.12201 14.5896 7.13197 14.1247 6.82982 13.8989C6.73686 13.8292 6.71029 13.8292 4.25658 13.8126L1.77631 13.796L1.58705 13.703C1.37455 13.6001 1.2517 13.4706 1.14877 13.2481L1.07905 13.0987V7.4376V1.77646L1.17202 1.58721C1.27494 1.37471 1.40444 1.25185 1.6269 1.14893C1.77631 1.0792 1.78295 1.0792 6.02631 1.0792C10.2663 1.0792 10.2763 1.0792 10.4257 1.14893C10.6216 1.23857 10.781 1.40127 10.8773 1.61045L10.957 1.77646V4.06748C10.957 6.229 10.9603 6.36514 11.0201 6.49463C11.113 6.70049 11.2624 6.79014 11.5115 6.79014C11.7339 6.79014 11.8369 6.73701 11.9663 6.56104C12.0361 6.47139 12.0361 6.4415 12.0361 4.02432C12.0361 1.59053 12.0361 1.57724 11.963 1.34482C11.8203 0.88662 11.4451 0.441699 11.0267 0.219237C10.5818 -0.0131845 10.8806 9.72748e-05 6.00639 0.00341702C2.281 0.00341702 1.58373 0.0133781 1.431 0.0532217Z" fill="white"/>
<path d="M2.39727 2.87871C2.22129 2.96504 2.125 3.13437 2.125 3.35684C2.125 3.5627 2.19805 3.70547 2.36738 3.83164C2.46035 3.90137 2.48691 3.90137 4.25 3.90137C6.01309 3.90137 6.03965 3.90137 6.13262 3.83164C6.29863 3.70879 6.375 3.5627 6.375 3.36016C6.375 3.13437 6.28535 2.97832 6.10605 2.88867C5.9832 2.82559 5.90684 2.82227 4.24336 2.82227C2.70273 2.82227 2.49355 2.82891 2.39727 2.87871Z" fill="white"/>
<path d="M2.45703 5.68105C2.24785 5.76406 2.125 5.96328 2.125 6.2123C2.125 6.42812 2.21797 6.58418 2.39395 6.67383C2.5168 6.74023 2.60645 6.74023 6.03633 6.74023H9.55254L9.66543 6.66387C9.72519 6.62402 9.81152 6.5377 9.85469 6.47461C9.92109 6.37832 9.93105 6.32852 9.92109 6.16582C9.90449 5.93672 9.83144 5.82383 9.6289 5.71758L9.48281 5.64453L6.00976 5.64785C3.78848 5.64785 2.51016 5.66113 2.45703 5.68105Z" fill="white"/>
<path d="M11.8601 7.80278C9.83135 8.05845 8.23096 9.56255 7.8458 11.5713C7.75947 12.0196 7.76944 12.8596 7.8624 13.3045C8.06826 14.2708 8.49658 15.0444 9.20713 15.7284C9.87119 16.3725 10.7312 16.8042 11.6276 16.9502C12.0294 17.0133 12.7897 17.0133 13.1683 16.9502C15.1007 16.6182 16.6181 15.1008 16.9501 13.1684C17.0132 12.7899 17.0132 12.0295 16.9501 11.6278C16.804 10.7313 16.3724 9.87134 15.7282 9.20728C15.0409 8.49673 14.254 8.06177 13.3077 7.86919C12.9192 7.7895 12.222 7.75962 11.8601 7.80278ZM13.0985 8.94497C14.4864 9.23716 15.5622 10.3262 15.8511 11.7274C15.9208 12.0594 15.9208 12.6936 15.8511 13.0489C15.4294 15.2868 12.989 16.5452 10.937 15.5889C10.5519 15.4096 10.2696 15.2204 9.98076 14.9448C8.52979 13.5635 8.50654 11.2924 9.92764 9.89458C10.4688 9.36333 11.1528 9.02466 11.9364 8.89849C12.1954 8.85864 12.8063 8.88188 13.0985 8.94497Z" fill="white"/>
<path d="M12.1523 9.96766C11.8734 10.1104 11.8701 10.1204 11.8602 11.0401L11.8502 11.8503L11.04 11.8602C10.2863 11.8702 10.2266 11.8735 10.1369 11.9399C10.0207 12.0229 9.89453 12.2653 9.89453 12.4048C9.89453 12.5741 10.0273 12.7866 10.1934 12.8729C10.3295 12.946 10.366 12.9493 11.0965 12.9493H11.8535V13.713C11.8535 14.4102 11.8602 14.4899 11.9199 14.6061C12.0992 14.9614 12.6105 14.9747 12.8629 14.6327C12.9293 14.543 12.9326 14.4899 12.9426 13.7462L12.9525 12.9526L13.7461 12.9427C14.626 12.9327 14.6326 12.9294 14.802 12.6837C14.9016 12.5343 14.9049 12.2554 14.8053 12.096C14.6658 11.8735 14.5762 11.8536 13.7129 11.8536H12.9492V11.0966C12.9492 10.3661 12.9459 10.3296 12.8729 10.1934C12.7865 10.0274 12.574 9.89461 12.4047 9.89461C12.3449 9.89461 12.232 9.92782 12.1523 9.96766Z" fill="white"/>
<path d="M2.36406 8.56641C2.20469 8.66602 2.125 8.81543 2.125 9.03125C2.125 9.24707 2.20469 9.39649 2.36406 9.49609C2.47031 9.55918 2.53672 9.5625 4.60195 9.5625H6.73027L6.83984 9.48613C7.0291 9.35996 7.08887 9.25039 7.08887 9.03125C7.08887 8.81211 7.0291 8.70254 6.83984 8.57305L6.73027 8.5H4.60195C2.53672 8.5 2.47031 8.50332 2.36406 8.56641Z" fill="white"/>
</svg>
