<svg width="13" height="13" viewBox="0 0 13 13" fill="none" xmlns="http://www.w3.org/2000/svg">
<path d="M2.32136 0.803032C2.25455 0.824289 2.15434 0.866803 2.09968 0.900208C1.98732 0.967015 0.144028 3.25063 0.092404 3.39032C0.0225593 3.57556 0.059 3.63326 1.00038 4.81151C1.49841 5.43404 1.94784 5.98065 1.99339 6.02924C2.29099 6.31469 2.8376 6.2995 3.09269 5.99887C3.26882 5.78933 3.32651 5.49781 3.24149 5.25487C3.22023 5.19717 3.07447 4.96031 2.91959 4.72952C2.76776 4.49873 2.6311 4.29223 2.62199 4.26794C2.60985 4.22846 2.96818 4.22238 5.37934 4.22238C8.22475 4.22238 8.61041 4.23453 9.03252 4.34385C9.56394 4.48051 10.1045 4.79025 10.5084 5.19414C11.6168 6.30254 11.7838 8.02133 10.9122 9.33016C10.724 9.61257 10.311 10.0256 10.0286 10.2138C9.60038 10.4993 9.09629 10.6845 8.58005 10.7483C8.43125 10.7665 7.89071 10.7817 7.38054 10.7817C6.51507 10.7817 6.44523 10.7878 6.31769 10.8455C6.13548 10.9275 6.05046 11.0095 5.96543 11.1917C5.79537 11.553 5.9381 11.963 6.29947 12.1573C6.4179 12.2211 6.46649 12.2242 7.33499 12.2333C8.59827 12.2484 9.06592 12.1968 9.71882 11.9751C11.1127 11.5045 12.218 10.396 12.6796 9.00826C13.0865 7.78446 12.9985 6.54852 12.4215 5.39152C11.7443 4.03411 10.5023 3.11702 8.95964 2.83764C8.70152 2.78905 8.34318 2.78298 5.6405 2.77387C3.97334 2.76476 2.61288 2.75261 2.61896 2.74046C2.62503 2.72832 2.75865 2.52789 2.91352 2.29406C3.07143 2.06024 3.22023 1.82034 3.24149 1.76264C3.38118 1.37394 3.15342 0.924501 2.75257 0.806069C2.57341 0.751408 2.48838 0.751408 2.32136 0.803032Z" fill="white"/>
</svg>
