<svg width="12" height="12" viewBox="0 0 12 12" fill="none" xmlns="http://www.w3.org/2000/svg">
<path d="M2.77031 0.0257816C2.66484 0.0562506 2.51719 0.213282 2.48672 0.321095C2.47266 0.370314 2.46094 0.527345 2.46094 0.670313V0.932813L2.01094 0.942188C1.60547 0.951563 1.5375 0.960938 1.34766 1.01719C0.747656 1.19766 0.264844 1.67578 0.0773438 2.28516L0.0117188 2.49609V6.46875V10.4414L0.0773438 10.6523C0.264844 11.2594 0.740625 11.7352 1.34766 11.9227L1.55859 11.9883H3.58828H5.61563L5.71172 11.925C5.85703 11.8289 5.91797 11.7141 5.91797 11.5313C5.91797 11.3484 5.85703 11.2336 5.71172 11.1375L5.61563 11.0742L3.64688 11.0625L1.67578 11.0508L1.53984 10.9969C1.27969 10.8914 1.08281 10.6852 0.991406 10.4203C0.951563 10.3078 0.949219 10.0969 0.949219 6.46875C0.949219 2.84063 0.951563 2.62969 0.991406 2.51719C1.08281 2.25234 1.28203 2.04375 1.53984 1.94297C1.65703 1.89844 1.73203 1.88906 2.06484 1.87969L2.45625 1.87031L2.46328 2.18438C2.47266 2.46328 2.47734 2.50547 2.52891 2.58516C2.55938 2.63438 2.62734 2.70234 2.67891 2.7375C2.75859 2.79141 2.80078 2.80078 2.92969 2.80078C3.05859 2.80078 3.10078 2.79141 3.18047 2.7375C3.23203 2.70234 3.3 2.63438 3.33047 2.58516C3.38203 2.50547 3.38672 2.46328 3.39375 2.18438L3.40313 1.875H4.45312H5.50313L5.5125 2.18672C5.51953 2.47969 5.52422 2.50547 5.58281 2.59453C5.67891 2.74219 5.79375 2.80078 5.97891 2.80078C6.10547 2.80078 6.14766 2.78906 6.22734 2.7375C6.27891 2.70234 6.34688 2.63438 6.37734 2.58516C6.42891 2.50547 6.43359 2.46328 6.44063 2.18438L6.45 1.875H7.51172H8.57344L8.58281 2.18672C8.58984 2.47969 8.59453 2.50547 8.65313 2.59453C8.74922 2.74219 8.86406 2.80078 9.04922 2.80078C9.17578 2.80078 9.21797 2.78906 9.29766 2.7375C9.34922 2.70234 9.41719 2.63438 9.44766 2.58516C9.49922 2.50547 9.50391 2.46328 9.51328 2.18438L9.52031 1.87031L9.92344 1.87969C10.2633 1.88906 10.343 1.89609 10.4508 1.94063C10.7109 2.04375 10.8938 2.22422 10.9969 2.47734L11.0508 2.61328L11.0625 4.125L11.0742 5.63672L11.1305 5.72578C11.1609 5.775 11.2289 5.84297 11.2805 5.87813C11.3602 5.92969 11.4023 5.94141 11.5289 5.94141C11.7141 5.94141 11.8289 5.88281 11.925 5.73516L11.9883 5.63906V4.06875V2.49609L11.9227 2.28516C11.7352 1.67813 11.2523 1.19766 10.6523 1.01719C10.4625 0.960938 10.3945 0.951563 9.97969 0.942188L9.52031 0.932813L9.51094 0.623438C9.50391 0.332813 9.49922 0.307032 9.44063 0.21797C9.34453 0.0726566 9.22969 0.0117197 9.04688 0.0117197C8.86406 0.0117197 8.74922 0.0726566 8.65313 0.21797C8.59453 0.307032 8.58984 0.332813 8.58281 0.625782L8.57344 0.937501H7.51172H6.45L6.44063 0.625782C6.43359 0.349219 6.42891 0.307032 6.37734 0.227345C6.34688 0.178125 6.27891 0.110157 6.22734 0.0750008C6.14766 0.0234385 6.10547 0.0117197 5.97891 0.0117197C5.79375 0.0117197 5.67891 0.0703135 5.58281 0.21797C5.52422 0.307032 5.51953 0.332813 5.5125 0.625782L5.50313 0.937501H4.45312H3.40313L3.39375 0.625782C3.38672 0.332813 3.38203 0.307032 3.32344 0.21797C3.28828 0.166407 3.22266 0.100782 3.17813 0.0726566C3.08203 0.0117197 2.88516 -0.00937462 2.77031 0.0257816Z" fill="#878787"/>
<path d="M2.77022 4.47896C2.65772 4.51177 2.51475 4.66646 2.48193 4.78599C2.42803 4.99458 2.51006 5.21255 2.68818 5.3227C2.82178 5.40708 3.04912 5.40239 3.18037 5.31567C3.32569 5.21958 3.38662 5.10474 3.38662 4.92193C3.38662 4.74146 3.32569 4.62427 3.1874 4.53287C3.08662 4.4649 2.89444 4.44146 2.77022 4.47896Z" fill="#878787"/>
<path d="M4.80928 4.47896C4.69678 4.51177 4.55381 4.66646 4.521 4.78599C4.46709 4.99458 4.54912 5.21255 4.72725 5.3227C4.86084 5.40708 5.08819 5.40239 5.21944 5.31567C5.36475 5.21958 5.42569 5.10474 5.42569 4.92193C5.42569 4.74146 5.36475 4.62427 5.22647 4.53287C5.12569 4.4649 4.9335 4.44146 4.80928 4.47896Z" fill="#878787"/>
<path d="M6.84834 4.47896C6.73584 4.51177 6.59287 4.66646 6.56006 4.78599C6.50615 4.99458 6.58818 5.21255 6.76631 5.3227C6.8999 5.40708 7.12725 5.40239 7.2585 5.31567C7.40381 5.21958 7.46475 5.10474 7.46475 4.92193C7.46475 4.74146 7.40381 4.62427 7.26553 4.53287C7.16475 4.4649 6.97256 4.44146 6.84834 4.47896Z" fill="#878787"/>
<path d="M8.8874 4.47896C8.7749 4.51177 8.63193 4.66646 8.59912 4.78599C8.54521 4.99458 8.62725 5.21255 8.80537 5.3227C8.93897 5.40708 9.16631 5.40239 9.29756 5.31567C9.44288 5.21958 9.50381 5.10474 9.50381 4.92193C9.50381 4.74146 9.44288 4.62427 9.30459 4.53287C9.20381 4.4649 9.01162 4.44146 8.8874 4.47896Z" fill="#878787"/>
<path d="M8.754 6.36329C8.13525 6.45939 7.57041 6.74767 7.14385 7.18595C6.91885 7.41329 6.76416 7.63595 6.61885 7.9336C6.23447 8.72344 6.23447 9.60469 6.61885 10.3945C6.90713 10.9828 7.34775 11.4234 7.93134 11.707C8.72587 12.0937 9.60243 12.0937 10.397 11.707C10.9806 11.4234 11.4212 10.9828 11.7095 10.3945C12.0938 9.60469 12.0938 8.72344 11.7095 7.9336C11.4212 7.34532 10.9806 6.9047 10.397 6.62111C9.87665 6.36798 9.29775 6.27658 8.754 6.36329ZM9.49697 7.29845C10.411 7.47892 11.0626 8.25235 11.0626 9.16407C11.0626 10.0758 10.411 10.8492 9.49697 11.0297C8.84775 11.1563 8.12587 10.8914 7.704 10.3711C7.12275 9.65391 7.12275 8.67423 7.704 7.95704C8.12587 7.43907 8.84775 7.17189 9.49697 7.29845Z" fill="#878787"/>
<path d="M9.0046 7.76017C8.89444 7.79298 8.74913 7.94767 8.71866 8.06251C8.70226 8.12579 8.69522 8.36485 8.69991 8.73985L8.70694 9.3211L8.77022 9.41485C8.80538 9.46641 8.87335 9.53438 8.92257 9.56484C9.00928 9.61875 9.02569 9.62109 9.50381 9.62109C9.98193 9.62109 9.99834 9.61875 10.0851 9.56484C10.1343 9.53438 10.2022 9.46641 10.2374 9.41485C10.3241 9.2836 10.3288 9.05625 10.2444 8.92266C10.153 8.77501 10.0358 8.71172 9.82022 8.70001L9.6374 8.69063L9.62803 8.36954C9.621 8.0836 9.61631 8.04142 9.56475 7.96173C9.45459 7.78361 9.21085 7.69689 9.0046 7.76017Z" fill="#878787"/>
<path d="M2.77022 6.51802C2.65772 6.55083 2.51475 6.70552 2.48193 6.82505C2.42803 7.03364 2.51006 7.25161 2.68818 7.36177C2.82178 7.44614 3.04912 7.44145 3.18037 7.35473C3.32569 7.25864 3.38662 7.1438 3.38662 6.96099C3.38662 6.78052 3.32569 6.66333 3.1874 6.57193C3.08662 6.50396 2.89444 6.48052 2.77022 6.51802Z" fill="#878787"/>
<path d="M4.80928 6.51802C4.69678 6.55083 4.55381 6.70552 4.521 6.82505C4.46709 7.03364 4.54912 7.25161 4.72725 7.36177C4.86084 7.44614 5.08819 7.44145 5.21944 7.35473C5.36475 7.25864 5.42569 7.1438 5.42569 6.96099C5.42569 6.78052 5.36475 6.66333 5.22647 6.57193C5.12569 6.50396 4.9335 6.48052 4.80928 6.51802Z" fill="#878787"/>
<path d="M2.77022 8.55706C2.65772 8.58987 2.51475 8.74456 2.48193 8.8641C2.42803 9.07269 2.51006 9.29067 2.68818 9.40083C2.82178 9.4852 3.04912 9.48052 3.18037 9.3938C3.32569 9.2977 3.38662 9.18285 3.38662 9.00004C3.38662 8.81956 3.32569 8.70237 3.1874 8.61097C3.08662 8.543 2.89444 8.51956 2.77022 8.55706Z" fill="#878787"/>
<path d="M4.80928 8.55706C4.69678 8.58987 4.55381 8.74456 4.521 8.8641C4.46709 9.07269 4.54912 9.29067 4.72725 9.40083C4.86084 9.4852 5.08819 9.48052 5.21944 9.3938C5.36475 9.2977 5.42569 9.18285 5.42569 9.00004C5.42569 8.81956 5.36475 8.70237 5.22647 8.61097C5.12569 8.543 4.9335 8.51956 4.80928 8.55706Z" fill="#878787"/>
</svg>
