<svg width="21" height="21" viewBox="0 0 21 21" fill="none" xmlns="http://www.w3.org/2000/svg">
<path d="M3.80689 0.0745525C3.68171 0.119257 3.50289 0.213139 3.41348 0.280197C3.2436 0.409842 3.01113 0.704897 2.96643 0.843485C2.94407 0.919483 2.8636 0.923954 2.08126 0.941835C1.25868 0.955248 1.21397 0.959719 0.968094 1.07595C0.610451 1.24136 0.301984 1.54536 0.145515 1.88512L0.0158691 2.16229V9.56104V16.9598L0.141044 17.2146C0.301984 17.5454 0.592569 17.836 0.923389 17.9969L1.17821 18.1221L6.51156 18.1445L11.8449 18.1668L11.9701 18.4172C12.207 18.8911 12.435 19.195 12.891 19.6421C13.5795 20.3261 14.3305 20.7284 15.2828 20.9251C15.8326 21.0414 16.9145 21.019 17.4063 20.8804C19.1498 20.4021 20.4105 19.1503 20.8754 17.4337C21.0185 16.9106 21.0408 15.8421 20.9246 15.2833C20.7279 14.3311 20.3255 13.5801 19.6415 12.8916C19.199 12.4401 18.9173 12.2299 18.4256 11.9707L18.1663 11.8321L18.1439 6.97706L18.1216 2.11759L17.9785 1.84936C17.8086 1.51854 17.5091 1.23242 17.1693 1.07595C16.9279 0.959719 16.8743 0.955248 16.0651 0.941835L15.2112 0.923954L15.1084 0.727251C14.9743 0.481371 14.7105 0.239962 14.4378 0.110315C14.1338 -0.0282707 13.5124 -0.0237999 13.2174 0.123728C12.9536 0.253374 12.6764 0.512665 12.5557 0.754074L12.4663 0.932896H9.06871H5.6711L5.58169 0.754074C5.45652 0.512665 5.18381 0.248903 4.92005 0.123728C4.62947 -0.0148582 4.11982 -0.0372124 3.80689 0.0745525ZM4.48194 1.04466C4.55794 1.08042 4.64735 1.15642 4.68311 1.21007C4.75911 1.33077 4.79935 1.98794 4.75911 2.33217C4.70546 2.73452 4.41041 2.94464 4.11088 2.78817C3.88289 2.67193 3.83818 2.52441 3.83818 1.91641C3.83818 1.31736 3.88289 1.16089 4.09747 1.04913C4.25394 0.96419 4.30759 0.96419 4.48194 1.04466ZM14.031 1.04466C14.2545 1.16089 14.2992 1.31289 14.2992 1.91641C14.2992 2.52441 14.2545 2.67193 14.0265 2.78817C13.727 2.94464 13.432 2.73452 13.3783 2.33217C13.3381 1.98794 13.3783 1.33077 13.4543 1.21007C13.5169 1.11172 13.736 0.982071 13.8432 0.9776C13.8745 0.9776 13.9595 1.00889 14.031 1.04466ZM2.85466 2.29641C2.85466 2.95805 3.12736 3.43193 3.65042 3.69122C3.87394 3.79851 3.95441 3.81639 4.30759 3.81639C4.64288 3.81639 4.7457 3.79851 4.93346 3.70463C5.45204 3.44981 5.71581 3.00723 5.75157 2.33217L5.77392 1.91641H9.06871H12.3635L12.3859 2.33217C12.4216 3.00723 12.6898 3.45428 13.2084 3.7091C13.3917 3.79851 13.4945 3.81639 13.8298 3.81639C14.1785 3.81639 14.2635 3.79851 14.487 3.69122C15.0145 3.43193 15.2828 2.95805 15.2828 2.29194V1.90747L15.9668 1.92535C16.7133 1.93877 16.8475 1.979 17.0442 2.24276C17.1336 2.36347 17.138 2.43053 17.1514 3.57498L17.1649 4.77756H9.06871H0.977035V3.63757C0.977035 2.43053 0.994917 2.30088 1.19162 2.12653C1.37044 1.96559 1.60291 1.92089 2.2422 1.91641H2.85466V2.29641ZM17.1604 8.64458V11.5236L17.0173 11.4923C16.9369 11.4744 16.5569 11.461 16.1769 11.461C15.6181 11.4655 15.4079 11.4834 15.0861 11.5638C14.2232 11.7784 13.508 12.1852 12.8642 12.8245C12.2115 13.4683 11.8136 14.1478 11.5856 15.0106C11.4828 15.3817 11.4694 15.5381 11.4649 16.1551C11.4604 16.5485 11.4739 16.9374 11.4917 17.0134L11.5275 17.161H6.53392C1.58503 17.161 1.54032 17.161 1.35256 17.0671C1.21397 17 1.13797 16.924 1.07092 16.7854C0.977035 16.5977 0.977035 16.5574 0.977035 11.1794V5.76108H9.06871H17.1604V8.64458ZM17.223 12.5787C18.5597 12.9676 19.5253 13.9511 19.8919 15.3057C20.0394 15.8511 20.0305 16.6871 19.8695 17.2191C19.4717 18.5513 18.5507 19.4722 17.2185 19.8701C16.6865 20.031 15.8505 20.04 15.3051 19.8925C13.955 19.5259 12.9804 18.5736 12.5736 17.2191C12.4127 16.6871 12.4037 15.8511 12.5513 15.3057C12.9581 13.7991 14.1651 12.7083 15.6985 12.4624C16.0964 12.3998 16.7893 12.4535 17.223 12.5787Z" fill="#D1D1D1"/>
<path d="M3.06473 7.68791C2.87697 7.79967 2.85461 7.93826 2.85461 9.06931C2.85461 10.2093 2.87697 10.3479 3.07367 10.4552C3.12732 10.482 3.61014 10.4999 4.31648 10.4999H5.47435L5.60847 10.3613L5.73811 10.2272V9.06931V7.91144L5.60847 7.77732L5.47435 7.63873H4.31201C3.60119 7.63873 3.11391 7.66109 3.06473 7.68791ZM4.77695 9.06931V9.51636H4.30754H3.83813V9.06931V8.62225H4.30754H4.77695V9.06931Z" fill="#D1D1D1"/>
<path d="M7.76783 7.76838L7.63818 7.89802V9.06931V10.2406L7.76783 10.3702L7.89747 10.4999H9.06876H10.24L10.3697 10.3702L10.4993 10.2406V9.06931V7.89802L10.3697 7.76838L10.24 7.63873H9.06876H7.89747L7.76783 7.76838ZM9.51581 9.06931V9.51636H9.06876H8.6217V9.06931V8.62225H9.06876H9.51581V9.06931Z" fill="#D1D1D1"/>
<path d="M12.5289 7.77732L12.3993 7.91144V9.06931V10.2272L12.5289 10.3613L12.6631 10.4999H13.8209C14.5273 10.4999 15.0101 10.482 15.0637 10.4552C15.2604 10.3479 15.2828 10.2093 15.2828 9.06931C15.2828 7.92932 15.2604 7.79073 15.0637 7.68344C15.0101 7.65662 14.5273 7.63873 13.8209 7.63873H12.6631L12.5289 7.77732ZM14.2993 9.06931V9.51636H13.8299H13.3605V9.06931V8.62225H13.8299H14.2993V9.06931Z" fill="#D1D1D1"/>
<path d="M3.09155 12.4669C3.01555 12.5116 2.92614 12.5921 2.90379 12.6412C2.8725 12.6949 2.85461 13.1464 2.85461 13.8528V14.9793L3.00661 15.1313L3.15861 15.2833H4.29413C5.53247 15.2833 5.55482 15.2789 5.69341 15.0151C5.74705 14.9123 5.76047 14.6798 5.76047 13.8304C5.76047 12.297 5.84093 12.3775 4.2986 12.3775C3.32402 12.3775 3.2212 12.3864 3.09155 12.4669ZM4.77695 13.8304V14.2998H4.30754H3.83813V13.8304V13.361H4.30754H4.77695V13.8304Z" fill="#D1D1D1"/>
<path d="M7.95112 12.4088C7.91536 12.4222 7.83042 12.4848 7.76336 12.5474L7.63818 12.6636V13.8215C7.63818 14.5278 7.65607 15.0106 7.68289 15.0643C7.79018 15.261 7.92877 15.2833 9.06876 15.2833C10.2087 15.2833 10.3473 15.261 10.4546 15.0643C10.4814 15.0106 10.4993 14.5278 10.4993 13.8215V12.6636L10.3607 12.5295L10.2266 12.3998L9.1224 12.3909C8.51441 12.3864 7.98689 12.3954 7.95112 12.4088ZM9.51581 13.8304V14.2998H9.06876H8.6217V13.8304V13.361H9.06876H9.51581V13.8304Z" fill="#D1D1D1"/>
<path d="M15.9668 13.8975C15.8908 13.9422 15.8014 14.0226 15.779 14.0718C15.7477 14.1255 15.7299 14.5725 15.7299 15.2744V16.3875L15.855 16.5619C15.9266 16.6558 16.1993 16.9419 16.463 17.1922C16.9369 17.6527 16.9369 17.6527 17.1649 17.6527C17.3571 17.6527 17.4108 17.6304 17.5225 17.5231C17.6343 17.4113 17.6522 17.3577 17.6522 17.161V16.933L17.1828 16.4501L16.7134 15.9673V15.0553C16.7134 14.0539 16.7044 14.0092 16.4451 13.8751C16.2708 13.7857 16.1367 13.7902 15.9668 13.8975Z" fill="#D1D1D1"/>
</svg>
