<svg width="11" height="11" viewBox="0 0 11 11" fill="none" xmlns="http://www.w3.org/2000/svg">
<path d="M9.99378 0.0249405C9.92774 0.0424566 9.82992 0.0900002 9.77367 0.132539C9.71742 0.172576 8.46524 1.59638 6.99295 3.30044C5.52067 5.002 4.29295 6.4183 4.26604 6.44583L4.21469 6.49587L3.38561 5.72016C2.92827 5.29227 2.47827 4.8919 2.38778 4.82934C2.13588 4.65418 1.92555 4.58662 1.59783 4.57411C1.11604 4.55659 0.778535 4.68922 0.450816 5.02953C0.220924 5.26725 0.0961957 5.49746 0.0374999 5.80023C-0.0701091 6.33322 0.0497282 6.7486 0.450816 7.26157C1.33859 8.39011 3.04077 10.507 3.14104 10.6071C3.36115 10.8248 3.79159 10.9975 4.11441 11C4.30517 11 4.59621 10.9274 4.79186 10.8298C4.92637 10.7623 5.02664 10.6872 5.15871 10.5496C5.33235 10.3744 5.52067 10.0691 8.13752 5.75519C9.6734 3.22037 10.95 1.09342 10.9696 1.02836C11.021 0.878222 11.0063 0.648011 10.9329 0.475353C10.8669 0.317708 10.6883 0.135041 10.5343 0.0649767C10.3851 -0.00258541 10.1454 -0.0201006 9.99378 0.0249405ZM9.73077 2.11539C9.82126 2.16293 10.1661 1.16664 10.1538 1.26923C10.149 1.31678 9.45573 2.58729 7.70709 5.46993C5.24431 9.53115 5.21388 8.32641 5.07692 8.46154C4.86904 8.66923 4.10606 7.61288 3.80769 7.61538C3.57291 7.61538 3.58516 9.44782 3.38462 9.30769C3.30635 9.25264 0.766306 6.8512 0.653806 6.66853C0.514403 6.44332 0.846154 5.92308 0.560871 5.81525C0.70761 5.3273 0.174457 7.06843 0.653806 7.15601C0.942394 7.20856 0.66024 7.07758 1.69231 8.03846C2.30861 8.61399 3.32837 10.5569 3.38462 10.5769C3.44576 10.5994 3.75389 8.47905 3.80769 8.46154C6.34615 10.5769 5.80896 8.03728 7.81196 5.72016C9.34539 3.94854 9.26612 2.99907 9.30769 2.96154C9.39574 2.88647 9.73077 2.11539 9.73077 2.11539Z" fill="white"/>
</svg>
