<svg width="21" height="21" viewBox="0 0 21 21" fill="none" xmlns="http://www.w3.org/2000/svg">
<g clip-path="url(#clip0_557_3292)">
<path d="M5.08593 0.086132C4.81113 0.209179 0.237882 4.77422 0.0984284 5.06543L-9.1368e-06 5.27051V12.7477C-9.1368e-06 21.0533 -0.0246185 20.3684 0.278897 20.6883C0.360929 20.7744 0.504483 20.8811 0.594718 20.9221C0.750577 20.9959 1.02538 21 7.86679 21C15.7213 21 15.0979 21.0246 15.4219 20.7252C15.7664 20.4176 15.75 20.6309 15.75 17.2143V14.1873L15.6475 14.0889C15.5162 13.9535 15.3029 13.9535 15.1471 14.0848L15.0322 14.1832L15.0199 17.1281L15.0076 20.073L14.9215 20.1674L14.8354 20.2617H7.875H0.91464L0.828507 20.1674L0.738273 20.073V12.8461V5.62324L2.6578 5.61094L4.57324 5.59863L4.80292 5.48379C5.07773 5.35254 5.38535 5.03672 5.50839 4.76601C5.59453 4.57734 5.59863 4.52812 5.61093 2.65371L5.62324 0.738279H10.2293H14.8354L14.9215 0.832615L15.0076 0.926952L15.0199 3.87187L15.0322 6.8168L15.1471 6.91523C15.3029 7.04648 15.5162 7.04648 15.6475 6.91113L15.75 6.81269V3.79394C15.75 0.442966 15.7623 0.619335 15.4711 0.311718C15.3891 0.225584 15.2455 0.118944 15.1553 0.0779285C14.9994 0.0041008 14.782 -1.90735e-06 10.1309 -1.90735e-06C5.34433 -1.90735e-06 5.2664 0.0041008 5.08593 0.086132ZM4.86035 4.33945C4.83163 4.50351 4.61835 4.75371 4.44199 4.82344C4.33945 4.86855 3.97031 4.88086 2.78085 4.88086H1.25097L3.05566 3.07617L4.86035 1.27148L4.87265 2.73574C4.87675 3.54375 4.87265 4.26562 4.86035 4.33945Z" fill="#D1D1D1"/>
<path d="M10.6846 1.76778C10.5492 1.84571 10.5 1.93594 10.5 2.11641C10.5 2.25586 10.5205 2.30918 10.6066 2.3748C10.7133 2.45684 10.7584 2.46094 12.2637 2.46094H13.8141L13.9248 2.32969C14.015 2.22305 14.0315 2.16973 14.0109 2.05488C13.9986 1.97695 13.9494 1.87442 13.9043 1.8293C13.8223 1.74727 13.7731 1.74317 12.2924 1.73496C11.2301 1.72676 10.742 1.73906 10.6846 1.76778Z" fill="#D1D1D1"/>
<path d="M11.7715 3.14586C11.5623 3.22379 11.4762 3.47398 11.5828 3.68316C11.6156 3.74879 11.6772 3.81441 11.71 3.83082C11.8453 3.88004 13.7977 3.85543 13.8674 3.80211C14.0479 3.66265 14.0643 3.36734 13.9002 3.21558C13.8223 3.14586 13.732 3.13765 12.8215 3.12945C12.2801 3.12535 11.8043 3.13355 11.7715 3.14586Z" fill="#D1D1D1"/>
<path d="M18.3668 6.0252C18.1905 6.08262 17.6368 6.44355 16.1315 7.48535C15.0323 8.24824 12.6534 9.89297 10.8487 11.1398L7.56743 13.4121L6.40258 15.1184C5.69301 16.1602 5.22133 16.8902 5.19673 16.9846L5.15981 17.1445H3.72426H2.29282L2.19438 17.2471C2.05083 17.3865 2.05493 17.6285 2.19848 17.7639L2.30512 17.8623H4.19594H6.09087L7.97758 17.3988C9.01528 17.1445 9.92993 16.9025 10.0079 16.8656C10.0858 16.8246 12.4606 15.2004 15.2784 13.2521C18.7155 10.8773 20.475 9.63867 20.6186 9.49512C20.9139 9.1834 21.0123 8.90859 20.9918 8.44922C20.9713 8.02676 20.9344 7.94883 20.3766 7.13672C19.7819 6.27539 19.6219 6.12774 19.1666 6.00879C18.8631 5.93086 18.6539 5.93496 18.3668 6.0252ZM18.9903 6.72656C19.1872 6.77988 19.3143 6.92344 19.8147 7.64531C20.192 8.19492 20.2372 8.27695 20.2536 8.46973C20.2741 8.70352 20.2125 8.85938 20.0485 9.01113C19.9993 9.06035 19.5768 9.35977 19.1174 9.67559L18.2807 10.2498L18.211 10.1596C18.0469 9.94219 16.7754 8.08418 16.7549 8.03086C16.7344 7.97344 18.3627 6.825 18.5924 6.73887C18.7565 6.67734 18.8098 6.67734 18.9903 6.72656ZM16.8862 9.56895L17.6614 10.6846L17.2553 10.9676C17.0297 11.1193 16.8329 11.2301 16.8164 11.2096C16.7959 11.1932 16.4473 10.6887 16.0372 10.0939C15.4096 9.1875 15.2989 9.00703 15.344 8.95781C15.4219 8.88398 16.0495 8.44922 16.0864 8.44922C16.0987 8.44922 16.4596 8.95371 16.8862 9.56895ZM15.4424 10.5574C16.1725 11.6115 16.2012 11.6648 16.1315 11.7305C16.0905 11.7674 14.737 12.7107 13.125 13.8223C11.5131 14.9379 10.135 15.8895 10.0612 15.9428L9.93403 16.0412L9.15063 14.9051L8.36723 13.773L11.3327 11.7264C12.961 10.5984 14.3678 9.62227 14.4581 9.55664C14.5483 9.49102 14.6344 9.4418 14.6508 9.4459C14.6672 9.45 15.0241 9.95039 15.4424 10.5574ZM8.5477 15.3521C8.90454 15.8689 9.18344 16.2996 9.17114 16.3119C9.15063 16.3324 7.89555 16.6523 7.83403 16.6523C7.80532 16.6523 7.10395 15.6557 7.06704 15.5654C7.04243 15.4957 7.82993 14.335 7.87504 14.3842C7.89145 14.4006 8.19497 14.8395 8.5477 15.3521ZM6.80454 16.5252C6.91938 16.6934 7.00551 16.8369 6.99731 16.8492C6.9727 16.8738 6.01294 17.0994 5.99653 17.083C5.98833 17.0748 6.11548 16.8738 6.27954 16.6359C6.4436 16.398 6.58305 16.2094 6.58715 16.2135C6.59126 16.2176 6.68969 16.357 6.80454 16.5252Z" fill="#D1D1D1"/>
<path d="M2.27641 7.02187C2.06313 7.14492 2.02212 7.44023 2.19438 7.6084L2.29282 7.71094H7.87505H13.4573L13.5557 7.6084C13.6295 7.53867 13.6582 7.46484 13.6582 7.3541C13.6541 7.18183 13.6049 7.0957 13.4655 7.02187C13.3383 6.95214 2.39536 6.95214 2.27641 7.02187Z" fill="#D1D1D1"/>
<path d="M2.19434 8.83887C2.12051 8.9086 2.0918 8.98243 2.0918 9.09317C2.0959 9.26544 2.14512 9.35157 2.28457 9.4254C2.39941 9.49103 10.7666 9.49513 10.9307 9.4336C11.0578 9.38439 11.1563 9.1711 11.1275 9.01114C11.1152 8.94962 11.0578 8.86348 11.0004 8.81837C10.902 8.73633 10.8199 8.73633 6.59531 8.73633H2.29277L2.19434 8.83887Z" fill="#D1D1D1"/>
<path d="M2.17789 10.6066C2.06305 10.7543 2.06715 10.9594 2.19019 11.1029L2.28863 11.2178L5.23765 11.2301C7.30074 11.2383 8.22769 11.2301 8.33843 11.1973C8.60913 11.1193 8.69116 10.783 8.49019 10.582C8.40816 10.5 8.33843 10.5 5.33609 10.5H2.25992L2.17789 10.6066Z" fill="#D1D1D1"/>
<path d="M2.33782 13.6459C2.08353 13.7402 2.0056 14.0684 2.19427 14.2529L2.29271 14.3555H3.74876C4.54857 14.3555 5.23353 14.3432 5.27045 14.3309C5.35248 14.298 5.45502 14.1012 5.45502 13.9699C5.45502 13.9125 5.4099 13.8141 5.35658 13.7525L5.25814 13.6377L3.82669 13.6295C3.04329 13.6254 2.37064 13.6336 2.33782 13.6459Z" fill="#D1D1D1"/>
<path d="M2.19434 15.4834C2.11641 15.5572 2.0918 15.627 2.0918 15.75C2.0918 15.873 2.11641 15.9428 2.19434 16.0166C2.29277 16.1191 2.29277 16.1191 3.1582 16.1191H4.02773L4.14668 16.0002C4.22871 15.9182 4.26563 15.8402 4.26563 15.75C4.26563 15.6598 4.22871 15.5818 4.14668 15.4998L4.02773 15.3809H3.1582C2.29277 15.3809 2.29277 15.3809 2.19434 15.4834Z" fill="#D1D1D1"/>
<path d="M13.4737 16.8246C13.3014 16.923 13.2932 16.9723 13.2891 17.768V18.5391H12.5221C11.7141 18.5432 11.669 18.5514 11.5747 18.7318C11.4967 18.8713 11.5172 19.0148 11.6239 19.142L11.7223 19.2568H12.7723C13.81 19.2568 13.8223 19.2568 13.9125 19.1625C14.0069 19.0723 14.0069 19.06 14.0069 18.0223V16.9723L13.892 16.8738C13.769 16.7672 13.6049 16.7508 13.4737 16.8246Z" fill="#D1D1D1"/>
</g>
<defs>
<clipPath id="clip0_557_3292">
<rect width="21" height="21" fill="white"/>
</clipPath>
</defs>
</svg>
