<svg width="28" height="28" viewBox="0 0 28 28" fill="none" xmlns="http://www.w3.org/2000/svg">
<g clip-path="url(#clip0_674_1002)">
<path d="M2.1982 4.7251C1.45445 4.90557 0.694292 5.49619 0.344292 6.15244C-0.0221144 6.85244 -0.000239392 6.35479 -0.000239392 14.0001C-0.000239392 21.6454 -0.0221144 21.1478 0.344292 21.8478C0.705229 22.5259 1.52007 23.1329 2.2857 23.2915C2.69585 23.3735 25.3037 23.3735 25.7138 23.2915C26.4795 23.1329 27.2943 22.5259 27.6552 21.8478C28.0216 21.1478 27.9998 21.6454 27.9998 14.0001C27.9998 6.35479 28.0216 6.85244 27.6552 6.15244C27.2943 5.47432 26.4795 4.86728 25.7138 4.70869C25.2599 4.61572 2.58648 4.63213 2.1982 4.7251ZM25.8451 6.07041C26.4904 6.39853 26.7966 6.93994 26.7966 7.74932V8.14854H13.9998H1.20289V7.74932C1.20289 6.83603 1.61304 6.23447 2.42242 5.95557C2.69039 5.85713 3.25914 5.85713 14.0873 5.86807L25.4677 5.879L25.8451 6.07041ZM26.7966 10.5001V11.6485H13.9998H1.20289V10.5001V9.35166H13.9998H26.7966V10.5001ZM26.7966 16.7509C26.7966 21.0931 26.8076 20.9673 26.4248 21.4649C26.2771 21.6618 26.113 21.7931 25.8451 21.9298L25.4677 22.1212H13.9998H2.53179L2.15445 21.9298C1.88648 21.7931 1.72242 21.6618 1.57476 21.4649C1.19195 20.9673 1.20289 21.0931 1.20289 16.7509V12.8517H13.9998H26.7966V16.7509Z" fill="#878787"/>
<path d="M21.0219 15.2251C20.5406 15.3782 20.1578 15.7446 19.9227 16.2696C19.8406 16.4556 19.8242 16.647 19.8242 17.5001C19.8242 18.479 19.8297 18.5228 19.9664 18.8181C20.1414 19.19 20.4203 19.4743 20.7977 19.6712C21.0711 19.8189 21.1148 19.8243 22.0664 19.8407C22.9742 19.8571 23.0781 19.8517 23.3789 19.7423C23.8055 19.5837 24.2758 19.1189 24.407 18.7306C24.5383 18.3532 24.5383 16.6525 24.4125 16.2806C24.3031 15.947 23.9039 15.5095 23.5484 15.3235C23.2805 15.1814 23.2367 15.1759 22.2578 15.165C21.5359 15.154 21.1805 15.1704 21.0219 15.2251ZM23.1383 16.5595L23.2969 16.7345V17.5001V18.2657L23.1383 18.4407L22.9797 18.6212L22.2687 18.6376C21.1203 18.6704 21.0273 18.5829 21.0273 17.5001C21.0273 16.4118 21.1039 16.3407 22.2469 16.3626L22.9797 16.379L23.1383 16.5595Z" fill="#878787"/>
<path d="M3.88281 16.3352C3.83906 16.3516 3.73516 16.4281 3.65312 16.5047C3.52734 16.6195 3.5 16.6906 3.5 16.9148C3.5 17.1336 3.52734 17.2047 3.65859 17.3414L3.81719 17.5H7.58516H11.3531L11.5062 17.3469C11.6922 17.1445 11.7414 16.8602 11.6266 16.6359C11.4461 16.2859 11.5828 16.2969 7.59062 16.3023C5.59453 16.3023 3.92656 16.3187 3.88281 16.3352Z" fill="#878787"/>
<path d="M3.7625 18.7359C3.56562 18.8398 3.5 18.9711 3.5 19.25C3.5 19.5344 3.57109 19.6656 3.77344 19.7695C3.91016 19.8406 4.44062 19.8516 7.62891 19.8516H11.3312L11.4844 19.693C11.7687 19.4141 11.7687 19.0859 11.4844 18.807L11.3312 18.6484H7.61797C4.45156 18.6539 3.88828 18.6648 3.7625 18.7359Z" fill="#878787"/>
</g>
<defs>
<clipPath id="clip0_674_1002">
<rect width="28" height="28" fill="white"/>
</clipPath>
</defs>
</svg>
