<svg width="18" height="15" viewBox="0 0 18 15" fill="none" xmlns="http://www.w3.org/2000/svg">
<path d="M5.99414 0.0537643C4.275 0.415371 3.07266 1.76135 2.99883 3.40198C2.94961 4.46336 3.33282 5.39751 4.1168 6.13077C5.57578 7.50019 7.92422 7.50019 9.3832 6.13077C10.1672 5.39751 10.5539 4.45667 10.5012 3.40198C10.4379 2.06269 9.63281 0.910907 8.36367 0.338362C7.80117 0.0838981 7.54453 0.0303268 6.83789 0.0135856C6.38789 0.00354099 6.18047 0.0135856 5.99414 0.0537643ZM7.34766 1.15867C7.47422 1.18546 7.72383 1.27586 7.90664 1.35957C8.18789 1.49015 8.28633 1.56046 8.55703 1.82162C8.91914 2.16649 9.0668 2.38412 9.22149 2.80265C9.32344 3.0772 9.33047 3.13077 9.33399 3.5493C9.33399 4.04484 9.27422 4.30265 9.07031 4.68769C8.74688 5.30042 8.1 5.79595 7.38281 5.9801C7.07344 6.06046 6.43008 6.06046 6.11719 5.9801C5.4 5.7993 4.75664 5.30376 4.42969 4.68769C4.22579 4.30265 4.16602 4.04484 4.16602 3.5493C4.16954 3.13077 4.17657 3.0772 4.27852 2.80265C4.43321 2.38412 4.58086 2.16649 4.94297 1.82162C5.21368 1.56046 5.31211 1.49015 5.59336 1.35957C5.77618 1.27586 6.01875 1.18546 6.13477 1.15867C6.41953 1.09506 7.05938 1.09171 7.34766 1.15867Z" fill="white"/>
<path d="M14.168 3.44198C13.9289 3.55582 13.8059 3.84042 13.8867 4.09488C13.9219 4.21207 14.0977 4.39957 14.9695 5.22993L16.0137 6.2277H13.4789H10.9477L10.793 6.30136C10.6172 6.38841 10.4766 6.59935 10.4766 6.78015C10.4766 6.91743 10.6102 7.16185 10.7332 7.24555C10.8316 7.31587 10.8703 7.31587 13.4402 7.32591L16.0453 7.33261L14.9695 8.36386C14.0379 9.25448 13.8902 9.4085 13.8691 9.51564C13.834 9.6931 13.8727 9.85716 13.9816 9.9777C14.1082 10.1217 14.2418 10.1786 14.4598 10.1786C14.6145 10.1786 14.6742 10.1618 14.7867 10.0815C14.8605 10.0279 15.6059 9.33149 16.4426 8.53462C17.4621 7.55694 17.9684 7.05136 17.9824 6.98774C17.9965 6.93752 18 6.81029 17.993 6.70984L17.9754 6.52234L16.3793 4.9989C15.5004 4.16185 14.741 3.45538 14.6883 3.42859C14.5582 3.36497 14.3156 3.36832 14.168 3.44198Z" fill="white"/>
<path d="M2.83711 8.625C1.4168 8.91629 0.323437 9.97098 0.0492187 11.3103C0.0105469 11.5011 0 11.9062 0 13.1016C0 14.5848 0.00351562 14.6518 0.0703125 14.7589C0.108984 14.8192 0.189844 14.8962 0.253125 14.933C0.369141 15 0.446484 15 6.75 15C13.0535 15 13.1309 15 13.2469 14.933C13.3102 14.8962 13.391 14.8192 13.4297 14.7589C13.5 14.6518 13.5 14.6049 13.4895 12.9911L13.4789 11.3337L13.384 11.0324C12.9797 9.77344 11.9637 8.88281 10.6383 8.625C10.2551 8.54799 3.20977 8.55134 2.83711 8.625ZM10.1496 9.67634C11.1059 9.77344 11.8617 10.3292 12.2133 11.1964L12.3223 11.4676L12.3328 12.6964L12.3434 13.9286H6.73594H1.125V12.9978C1.125 12.4888 1.14258 11.933 1.16016 11.7623C1.25156 10.9319 1.76484 10.2321 2.5418 9.88393C2.81602 9.76004 3.00586 9.70982 3.32227 9.67634C3.69492 9.63951 9.77344 9.63951 10.1496 9.67634Z" fill="white"/>
</svg>
