<svg width="16" height="20" viewBox="0 0 16 20" fill="none" xmlns="http://www.w3.org/2000/svg">
<path d="M7.50966 0.0437622C5.18156 0.455275 3.44068 2.13042 2.91592 4.454C2.84095 4.78654 2.83262 5.01516 2.81596 6.45753L2.79514 8.08694L2.64521 8.11189C2.11212 8.19917 1.81225 8.33219 1.48324 8.63978C1.23752 8.87256 1.04177 9.22588 0.970971 9.55841C0.941818 9.70805 0.929323 11.1338 0.937653 14.2014L0.950147 18.6283L1.04177 18.8569C1.23335 19.3183 1.63317 19.7173 2.09546 19.9086L2.32452 20H8.46756H14.6106L14.8397 19.9086C15.3019 19.7173 15.7018 19.3183 15.8933 18.8569L15.985 18.6283L15.9975 14.2014C16.0058 11.1338 15.9933 9.70805 15.9641 9.55841C15.8933 9.22588 15.6976 8.87256 15.4519 8.63978C15.1229 8.33219 14.823 8.19917 14.2899 8.11189L14.14 8.08694L14.1192 6.45753C14.1025 5.01516 14.0942 4.78654 14.0192 4.454C13.5153 2.21355 11.891 0.584131 9.67534 0.0894852C9.2547 -0.00611877 7.9428 -0.0310574 7.50966 0.0437622ZM9.35466 1.36143C10.6457 1.6233 11.7827 2.49205 12.3783 3.67255C12.7656 4.44153 12.8406 4.94449 12.8406 6.72771V8.0911H8.46756H4.09455V6.72771C4.09455 5.24377 4.1362 4.80316 4.32361 4.24617C4.7276 3.04489 5.65634 2.05975 6.84746 1.57342C7.57213 1.27414 8.53836 1.19516 9.35466 1.36143ZM14.4232 9.48359C14.7355 9.66648 14.7147 9.36305 14.7147 14.0767C14.7147 18.0838 14.7106 18.3041 14.6398 18.4371C14.5981 18.5161 14.4981 18.6158 14.419 18.6574C14.2857 18.7281 14.015 18.7322 8.46756 18.7322C2.92008 18.7322 2.64937 18.7281 2.5161 18.6574C2.43697 18.6158 2.33702 18.5161 2.29537 18.4371C2.22457 18.3041 2.2204 18.0838 2.2204 14.085C2.2204 9.51684 2.21207 9.6748 2.4453 9.521C2.50777 9.48359 2.61606 9.43787 2.69102 9.42124C2.76182 9.40046 5.40229 9.39214 8.55086 9.39214C14.2274 9.40046 14.2774 9.40046 14.4232 9.48359Z" fill="#6C2EB9"/>
<path d="M7.86367 11.321C7.2806 11.5289 6.89328 11.9071 6.68921 12.4558C6.35602 13.3453 6.72252 14.3388 7.53882 14.7752L7.79287 14.9082L7.80953 15.6897C7.82202 16.3755 7.83035 16.4836 7.90532 16.6083C8.13855 16.999 8.79658 16.999 9.02981 16.6083C9.10477 16.4836 9.1131 16.3755 9.1256 15.6897L9.14226 14.9082L9.38798 14.7794C10.2001 14.3471 10.5666 13.3786 10.2543 12.4724C10.1002 12.0152 9.7753 11.6577 9.30468 11.4249C9.00898 11.2795 8.96734 11.2711 8.5342 11.2587C8.17603 11.2504 8.0261 11.267 7.86367 11.321ZM8.78825 12.6221C9.04647 12.7759 9.14226 13.1832 8.98399 13.4534C8.90486 13.5864 8.62999 13.7444 8.47589 13.7444C8.15104 13.7444 7.87617 13.4742 7.87617 13.1458C7.87617 12.7842 8.11356 12.5389 8.46756 12.5389C8.58001 12.5389 8.70912 12.5722 8.78825 12.6221Z" fill="#6C2EB9"/>
</svg>
