<svg width="21" height="21" viewBox="0 0 21 21" fill="none" xmlns="http://www.w3.org/2000/svg">
<path d="M10.1391 0.0820312C10.0652 0.127149 9.9709 0.221485 9.92578 0.295313C9.84375 0.426563 9.84375 0.512695 9.84375 4.32715V8.22363L9.94219 8.37129C10.2006 8.74863 10.7994 8.74863 11.0578 8.37129L11.1562 8.22363V4.32715C11.1562 0.512695 11.1562 0.426563 11.0742 0.295313C10.9512 0.0984383 10.7666 0 10.5 0C10.3482 0 10.2293 0.0246096 10.1391 0.0820312Z" fill="#D1D1D1"/>
<path d="M6.05801 0.959766C4.34766 1.71856 2.6209 3.24434 1.5791 4.92188C0.84082 6.11133 0.365039 7.37871 0.110742 8.81836C0.0328125 9.26133 0.0205078 9.48691 0.0205078 10.4795C0.0205078 11.6895 0.0451172 11.9396 0.233789 12.7969C0.967969 16.1314 3.39609 19.0025 6.5502 20.2576C7.8709 20.7826 9.03164 21 10.5 21C12.2309 21 13.7197 20.6555 15.1922 19.9172C16.3078 19.3553 17.1609 18.7277 18.0469 17.8172C19.6588 16.1561 20.6555 14.0848 20.9385 11.8125C21.0082 11.2301 21.0205 9.92988 20.959 9.37207C20.7457 7.46074 20.0361 5.67246 18.8713 4.12207C18.4775 3.60117 17.6531 2.75215 17.124 2.32559C16.5621 1.87441 15.832 1.39863 15.2168 1.09512C14.7861 0.881836 14.6754 0.84082 14.499 0.84082C14.0191 0.849024 13.6992 1.3125 13.8797 1.74316C13.9822 1.98516 14.0437 2.03438 14.5811 2.30098C17.3045 3.6668 19.1953 6.31641 19.585 9.32285C19.667 9.95449 19.6629 11.0537 19.5809 11.6977C19.1133 15.3193 16.4473 18.3668 12.8871 19.343C11.3695 19.7572 9.63047 19.7572 8.11289 19.343C4.95059 18.4734 2.48555 15.992 1.64062 12.8297C1.24687 11.3449 1.25098 9.59766 1.65703 8.11699C2.3502 5.58223 4.07695 3.47402 6.41894 2.30508C6.95215 2.03848 7.01777 1.98516 7.12031 1.74316C7.23516 1.46016 7.11621 1.08691 6.85781 0.931055C6.61992 0.795704 6.41074 0.803907 6.05801 0.959766Z" fill="#D1D1D1"/>
</svg>
