<svg width="18" height="20" viewBox="0 0 18 20" fill="none" xmlns="http://www.w3.org/2000/svg">
<path d="M8.17968 0.0273657C7.49609 0.136741 6.90234 0.339866 6.44531 0.613303C5.73828 1.03518 5.09374 1.6758 4.67187 2.37112C4.45312 2.73049 4.25781 3.23049 4.14843 3.69143C4.03515 4.17971 4.00781 5.15627 4.09374 5.64846C4.34374 7.08596 5.20703 8.30471 6.50781 9.0508C7.78906 9.78518 9.49609 9.84768 10.8984 9.21487C11.3672 9.00393 11.8086 8.67971 12.2656 8.22658C13.2891 7.20315 13.7383 6.03908 13.6758 4.60158C13.6172 3.32424 13.1836 2.32033 12.293 1.41799C11.582 0.695334 10.6953 0.230491 9.71484 0.0586157C9.40624 0.00392818 8.43749 -0.0156031 8.17968 0.0273657ZM9.85156 1.32424C10.4375 1.49612 10.9687 1.82033 11.4336 2.29299C11.8984 2.76565 12.1562 3.19924 12.3477 3.81643C12.4453 4.13283 12.4531 4.21096 12.4531 4.82424C12.4492 5.42971 12.4414 5.51955 12.3477 5.83205C12.168 6.4219 11.9062 6.8594 11.4453 7.33596C10.7578 8.0508 9.84374 8.43752 8.86718 8.43752C7.89843 8.43362 7.10156 8.11721 6.41015 7.46096C5.87109 6.94924 5.54296 6.42971 5.35937 5.79299C5.28124 5.52737 5.26953 5.40237 5.27343 4.80471C5.27343 4.1719 5.28124 4.09377 5.38281 3.76955C5.64843 2.90627 6.26171 2.14455 7.08593 1.65627C7.39062 1.47658 7.68749 1.3633 8.10546 1.26955C8.48437 1.18362 9.47656 1.21487 9.85156 1.32424Z" fill="#6C2EB9"/>
<path d="M4.50781 9.67185C3.60547 9.80466 2.92187 10.1406 2.34766 10.7304C1.25391 11.8554 0.640625 13.8515 0.640625 16.2929C0.640625 17.3242 0.714844 17.6914 1.04297 18.3398C1.16406 18.5781 1.28906 18.7383 1.55859 19.0078C1.94141 19.3945 2.27344 19.6133 2.73828 19.7773C3.38281 20.0117 3.16797 20.0039 9.14062 19.9922L14.6055 19.9804L14.9375 19.8789C15.3594 19.7461 15.582 19.6484 15.8633 19.4687C16.5156 19.0547 16.9961 18.3984 17.2031 17.6562C17.3281 17.1914 17.3633 16.6367 17.3203 15.7812C17.125 11.9531 15.6719 9.79685 13.1992 9.66013C12.668 9.63279 12.6602 9.63279 11.75 10.2187C11.0469 10.6679 10.5586 10.8906 9.91016 11.0586C9.42187 11.1875 8.54687 11.1875 8.0625 11.0625C7.37109 10.8828 6.90625 10.6679 6.20312 10.2109C5.94531 10.0429 5.62891 9.84763 5.49219 9.77732C5.26562 9.66013 5.21484 9.64841 4.92578 9.65232C4.75 9.65623 4.5625 9.66404 4.50781 9.67185ZM5.54297 11.2383C6.24219 11.6875 6.76172 11.9414 7.36719 12.125C8.54687 12.4804 9.66406 12.457 10.8398 12.0469C11.375 11.8633 11.7578 11.664 12.4492 11.2187L13.0273 10.8515L13.2656 10.875C14.707 11.039 15.582 12.2187 15.9727 14.5117C16.0898 15.1914 16.1602 16.4609 16.1094 16.9179C16.0039 17.8633 15.4141 18.5195 14.4766 18.7383C14.1953 18.8047 13.8555 18.8086 8.96094 18.8086C3.16406 18.8086 3.53125 18.8242 2.94922 18.5469C2.62891 18.3945 2.22656 18 2.07812 17.6953C1.89062 17.3047 1.85156 17.0625 1.85156 16.3047C1.85547 14.2461 2.33594 12.5508 3.1875 11.6211C3.51562 11.2617 3.92578 11.0312 4.44922 10.9179C4.89062 10.8203 4.90234 10.8242 5.54297 11.2383Z" fill="#6C2EB9"/>
</svg>
